<mxfile host="app.diagrams.net" modified="2022-03-30T08:06:28.068Z" agent="5.0 (Windows NT 10.0; Win64; x64) AppleWebKit/537.36 (KHTML, like Gecko) Chrome/99.0.4844.84 Safari/537.36" etag="Jf2kTjmgOC6fBkx83u32" version="17.2.4" type="github">
  <diagram id="x136NBKBKu3CeOO5LAEP" name="Page-1">
    <mxGraphModel dx="1038" dy="579" grid="1" gridSize="10" guides="1" tooltips="1" connect="1" arrows="1" fold="1" page="1" pageScale="1" pageWidth="827" pageHeight="1169" math="0" shadow="0">
      <root>
        <mxCell id="0" />
        <mxCell id="1" parent="0" />
        <mxCell id="mCd9F4tSy7Tje80N99zC-1" value="Controller" style="shape=umlLifeline;perimeter=lifelinePerimeter;whiteSpace=wrap;html=1;container=1;collapsible=0;recursiveResize=0;outlineConnect=0;" vertex="1" parent="1">
          <mxGeometry x="40" y="40" width="100" height="560" as="geometry" />
        </mxCell>
        <mxCell id="mCd9F4tSy7Tje80N99zC-2" value="" style="html=1;points=[];perimeter=orthogonalPerimeter;" vertex="1" parent="mCd9F4tSy7Tje80N99zC-1">
          <mxGeometry x="45" y="40" width="10" height="80" as="geometry" />
        </mxCell>
        <mxCell id="mCd9F4tSy7Tje80N99zC-12" value="" style="endArrow=open;endFill=1;endSize=12;html=1;rounded=0;dashed=1;entryX=0.96;entryY=0.488;entryDx=0;entryDy=0;entryPerimeter=0;" edge="1" parent="mCd9F4tSy7Tje80N99zC-1">
          <mxGeometry width="160" relative="1" as="geometry">
            <mxPoint x="189.9" y="159.49999999999997" as="sourcePoint" />
            <mxPoint x="54.999999999999915" y="159.49999999999997" as="targetPoint" />
          </mxGeometry>
        </mxCell>
        <mxCell id="mCd9F4tSy7Tje80N99zC-13" value="" style="endArrow=open;endFill=1;endSize=12;html=1;rounded=0;exitX=1.12;exitY=0.238;exitDx=0;exitDy=0;exitPerimeter=0;" edge="1" parent="mCd9F4tSy7Tje80N99zC-1">
          <mxGeometry width="160" relative="1" as="geometry">
            <mxPoint x="56.60000000000005" y="139.49999999999997" as="sourcePoint" />
            <mxPoint x="189.9" y="139.49999999999997" as="targetPoint" />
          </mxGeometry>
        </mxCell>
        <mxCell id="mCd9F4tSy7Tje80N99zC-28" value="" style="html=1;points=[];perimeter=orthogonalPerimeter;" vertex="1" parent="mCd9F4tSy7Tje80N99zC-1">
          <mxGeometry x="45" y="120" width="10" height="150" as="geometry" />
        </mxCell>
        <mxCell id="mCd9F4tSy7Tje80N99zC-41" value="" style="endArrow=open;endFill=1;endSize=12;html=1;rounded=0;entryX=-0.14;entryY=0.503;entryDx=0;entryDy=0;entryPerimeter=0;" edge="1" parent="mCd9F4tSy7Tje80N99zC-1" target="mCd9F4tSy7Tje80N99zC-48">
          <mxGeometry width="160" relative="1" as="geometry">
            <mxPoint x="55" y="310" as="sourcePoint" />
            <mxPoint x="600" y="310" as="targetPoint" />
          </mxGeometry>
        </mxCell>
        <mxCell id="mCd9F4tSy7Tje80N99zC-46" value="" style="endArrow=open;endFill=1;endSize=12;html=1;rounded=0;entryX=-0.14;entryY=0.242;entryDx=0;entryDy=0;entryPerimeter=0;" edge="1" parent="mCd9F4tSy7Tje80N99zC-1" target="mCd9F4tSy7Tje80N99zC-67">
          <mxGeometry width="160" relative="1" as="geometry">
            <mxPoint x="60" y="370" as="sourcePoint" />
            <mxPoint x="220" y="370" as="targetPoint" />
          </mxGeometry>
        </mxCell>
        <mxCell id="mCd9F4tSy7Tje80N99zC-40" value="" style="html=1;points=[];perimeter=orthogonalPerimeter;" vertex="1" parent="mCd9F4tSy7Tje80N99zC-1">
          <mxGeometry x="45" y="270" width="10" height="170" as="geometry" />
        </mxCell>
        <mxCell id="mCd9F4tSy7Tje80N99zC-60" value="" style="html=1;points=[];perimeter=orthogonalPerimeter;" vertex="1" parent="mCd9F4tSy7Tje80N99zC-1">
          <mxGeometry x="45" y="440" width="10" height="80" as="geometry" />
        </mxCell>
        <mxCell id="mCd9F4tSy7Tje80N99zC-3" value="Cat" style="shape=umlLifeline;perimeter=lifelinePerimeter;whiteSpace=wrap;html=1;container=1;collapsible=0;recursiveResize=0;outlineConnect=0;" vertex="1" parent="1">
          <mxGeometry x="180" y="40" width="100" height="560" as="geometry" />
        </mxCell>
        <mxCell id="mCd9F4tSy7Tje80N99zC-10" value="" style="endArrow=open;endFill=1;endSize=12;html=1;rounded=0;dashed=1;entryX=0.96;entryY=0.488;entryDx=0;entryDy=0;entryPerimeter=0;" edge="1" parent="mCd9F4tSy7Tje80N99zC-3" source="mCd9F4tSy7Tje80N99zC-5">
          <mxGeometry width="160" relative="1" as="geometry">
            <mxPoint x="49.900000000000006" y="118.99999999999997" as="sourcePoint" />
            <mxPoint x="-85.00000000000009" y="118.99999999999997" as="targetPoint" />
          </mxGeometry>
        </mxCell>
        <mxCell id="mCd9F4tSy7Tje80N99zC-11" value="" style="endArrow=open;endFill=1;endSize=12;html=1;rounded=0;exitX=1.12;exitY=0.238;exitDx=0;exitDy=0;exitPerimeter=0;entryX=0.1;entryY=0.352;entryDx=0;entryDy=0;entryPerimeter=0;" edge="1" parent="mCd9F4tSy7Tje80N99zC-3" target="mCd9F4tSy7Tje80N99zC-65">
          <mxGeometry width="160" relative="1" as="geometry">
            <mxPoint x="-83.39999999999995" y="98.99999999999997" as="sourcePoint" />
            <mxPoint x="49.900000000000006" y="98.99999999999997" as="targetPoint" />
          </mxGeometry>
        </mxCell>
        <mxCell id="mCd9F4tSy7Tje80N99zC-15" value="makeSound" style="text;html=1;align=center;verticalAlign=middle;resizable=0;points=[];autosize=1;strokeColor=none;fillColor=none;" vertex="1" parent="mCd9F4tSy7Tje80N99zC-3">
          <mxGeometry x="-60" y="120" width="80" height="20" as="geometry" />
        </mxCell>
        <mxCell id="mCd9F4tSy7Tje80N99zC-5" value="Dog" style="shape=umlLifeline;perimeter=lifelinePerimeter;whiteSpace=wrap;html=1;container=1;collapsible=0;recursiveResize=0;outlineConnect=0;" vertex="1" parent="1">
          <mxGeometry x="320" y="40" width="100" height="560" as="geometry" />
        </mxCell>
        <mxCell id="mCd9F4tSy7Tje80N99zC-29" value="" style="endArrow=open;endFill=1;endSize=12;html=1;rounded=0;dashed=1;entryX=0.96;entryY=0.488;entryDx=0;entryDy=0;entryPerimeter=0;" edge="1" parent="mCd9F4tSy7Tje80N99zC-5">
          <mxGeometry width="160" relative="1" as="geometry">
            <mxPoint x="47.25" y="230" as="sourcePoint" />
            <mxPoint x="-227.25" y="230" as="targetPoint" />
          </mxGeometry>
        </mxCell>
        <mxCell id="mCd9F4tSy7Tje80N99zC-65" value="" style="html=1;points=[];perimeter=orthogonalPerimeter;" vertex="1" parent="mCd9F4tSy7Tje80N99zC-5">
          <mxGeometry x="45" y="70" width="10" height="80" as="geometry" />
        </mxCell>
        <mxCell id="mCd9F4tSy7Tje80N99zC-66" value="" style="html=1;points=[];perimeter=orthogonalPerimeter;" vertex="1" parent="mCd9F4tSy7Tje80N99zC-5">
          <mxGeometry x="45" y="170" width="10" height="80" as="geometry" />
        </mxCell>
        <mxCell id="mCd9F4tSy7Tje80N99zC-67" value="" style="html=1;points=[];perimeter=orthogonalPerimeter;" vertex="1" parent="mCd9F4tSy7Tje80N99zC-5">
          <mxGeometry x="45" y="350" width="10" height="80" as="geometry" />
        </mxCell>
        <mxCell id="mCd9F4tSy7Tje80N99zC-68" value="" style="html=1;points=[];perimeter=orthogonalPerimeter;" vertex="1" parent="mCd9F4tSy7Tje80N99zC-5">
          <mxGeometry x="45" y="450" width="10" height="80" as="geometry" />
        </mxCell>
        <mxCell id="mCd9F4tSy7Tje80N99zC-6" value="Tree" style="shape=umlLifeline;perimeter=lifelinePerimeter;whiteSpace=wrap;html=1;container=1;collapsible=0;recursiveResize=0;outlineConnect=0;" vertex="1" parent="1">
          <mxGeometry x="460" y="40" width="100" height="560" as="geometry" />
        </mxCell>
        <mxCell id="mCd9F4tSy7Tje80N99zC-7" value="Animal" style="shape=umlLifeline;perimeter=lifelinePerimeter;whiteSpace=wrap;html=1;container=1;collapsible=0;recursiveResize=0;outlineConnect=0;" vertex="1" parent="1">
          <mxGeometry x="600" y="40" width="100" height="560" as="geometry" />
        </mxCell>
        <mxCell id="mCd9F4tSy7Tje80N99zC-48" value="" style="html=1;points=[];perimeter=orthogonalPerimeter;" vertex="1" parent="mCd9F4tSy7Tje80N99zC-7">
          <mxGeometry x="45" y="270" width="10" height="80" as="geometry" />
        </mxCell>
        <mxCell id="mCd9F4tSy7Tje80N99zC-9" value="" style="endArrow=open;endFill=1;endSize=12;html=1;rounded=0;dashed=1;entryX=0.96;entryY=0.488;entryDx=0;entryDy=0;entryPerimeter=0;" edge="1" parent="1" source="mCd9F4tSy7Tje80N99zC-3" target="mCd9F4tSy7Tje80N99zC-2">
          <mxGeometry width="160" relative="1" as="geometry">
            <mxPoint x="160" y="220" as="sourcePoint" />
            <mxPoint x="320" y="220" as="targetPoint" />
          </mxGeometry>
        </mxCell>
        <mxCell id="mCd9F4tSy7Tje80N99zC-8" value="" style="endArrow=open;endFill=1;endSize=12;html=1;rounded=0;exitX=1.12;exitY=0.238;exitDx=0;exitDy=0;exitPerimeter=0;" edge="1" parent="1" source="mCd9F4tSy7Tje80N99zC-2" target="mCd9F4tSy7Tje80N99zC-3">
          <mxGeometry width="160" relative="1" as="geometry">
            <mxPoint x="110" y="100" as="sourcePoint" />
            <mxPoint x="250" y="100" as="targetPoint" />
          </mxGeometry>
        </mxCell>
        <mxCell id="mCd9F4tSy7Tje80N99zC-14" value="makeSound" style="text;html=1;align=center;verticalAlign=middle;resizable=0;points=[];autosize=1;strokeColor=none;fillColor=none;" vertex="1" parent="1">
          <mxGeometry x="120" y="80" width="80" height="20" as="geometry" />
        </mxCell>
        <mxCell id="mCd9F4tSy7Tje80N99zC-17" value="&quot;Miav&quot;" style="text;html=1;align=center;verticalAlign=middle;resizable=0;points=[];autosize=1;strokeColor=none;fillColor=none;" vertex="1" parent="1">
          <mxGeometry x="135" y="100" width="50" height="20" as="geometry" />
        </mxCell>
        <mxCell id="mCd9F4tSy7Tje80N99zC-20" value="&quot;Vuf&quot;" style="text;html=1;align=center;verticalAlign=middle;resizable=0;points=[];autosize=1;strokeColor=none;fillColor=none;" vertex="1" parent="1">
          <mxGeometry x="265" y="140" width="40" height="20" as="geometry" />
        </mxCell>
        <mxCell id="mCd9F4tSy7Tje80N99zC-16" value="makeSound" style="text;html=1;align=center;verticalAlign=middle;resizable=0;points=[];autosize=1;strokeColor=none;fillColor=none;" vertex="1" parent="1">
          <mxGeometry x="240" y="120" width="80" height="20" as="geometry" />
        </mxCell>
        <mxCell id="mCd9F4tSy7Tje80N99zC-21" value="&quot;Miav&quot;" style="text;html=1;align=center;verticalAlign=middle;resizable=0;points=[];autosize=1;strokeColor=none;fillColor=none;" vertex="1" parent="1">
          <mxGeometry x="140" y="180" width="50" height="20" as="geometry" />
        </mxCell>
        <mxCell id="mCd9F4tSy7Tje80N99zC-24" value="" style="endArrow=open;endFill=1;endSize=12;html=1;rounded=0;entryX=0.18;entryY=0.302;entryDx=0;entryDy=0;entryPerimeter=0;" edge="1" parent="1" source="mCd9F4tSy7Tje80N99zC-28" target="mCd9F4tSy7Tje80N99zC-66">
          <mxGeometry width="160" relative="1" as="geometry">
            <mxPoint x="130" y="230" as="sourcePoint" />
            <mxPoint x="250" y="230" as="targetPoint" />
          </mxGeometry>
        </mxCell>
        <mxCell id="mCd9F4tSy7Tje80N99zC-30" value="chase(cat)" style="text;html=1;align=center;verticalAlign=middle;resizable=0;points=[];autosize=1;strokeColor=none;fillColor=none;" vertex="1" parent="1">
          <mxGeometry x="255" y="210" width="70" height="20" as="geometry" />
        </mxCell>
        <mxCell id="mCd9F4tSy7Tje80N99zC-31" value="&lt;font style=&quot;font-size: 9px&quot;&gt;&quot;Dog chasing: &quot; + otherAnimal&lt;/font&gt;" style="text;html=1;align=center;verticalAlign=middle;resizable=0;points=[];autosize=1;strokeColor=none;fillColor=none;" vertex="1" parent="1">
          <mxGeometry x="230" y="250" width="140" height="20" as="geometry" />
        </mxCell>
        <mxCell id="mCd9F4tSy7Tje80N99zC-42" value="climbTree(dog)" style="text;html=1;align=center;verticalAlign=middle;resizable=0;points=[];autosize=1;strokeColor=none;fillColor=none;" vertex="1" parent="1">
          <mxGeometry x="525" y="330" width="100" height="20" as="geometry" />
        </mxCell>
        <mxCell id="mCd9F4tSy7Tje80N99zC-47" value="jump(tree)" style="text;html=1;align=center;verticalAlign=middle;resizable=0;points=[];autosize=1;strokeColor=none;fillColor=none;" vertex="1" parent="1">
          <mxGeometry x="250" y="390" width="70" height="20" as="geometry" />
        </mxCell>
        <mxCell id="mCd9F4tSy7Tje80N99zC-53" value="" style="endArrow=open;endFill=1;endSize=12;html=1;rounded=0;entryX=1.14;entryY=0.406;entryDx=0;entryDy=0;entryPerimeter=0;dashed=1;" edge="1" parent="1" target="mCd9F4tSy7Tje80N99zC-40">
          <mxGeometry width="160" relative="1" as="geometry">
            <mxPoint x="640" y="379" as="sourcePoint" />
            <mxPoint x="630" y="370" as="targetPoint" />
          </mxGeometry>
        </mxCell>
        <mxCell id="mCd9F4tSy7Tje80N99zC-54" value="false" style="text;html=1;align=center;verticalAlign=middle;resizable=0;points=[];autosize=1;strokeColor=none;fillColor=none;" vertex="1" parent="1">
          <mxGeometry x="555" y="360" width="40" height="20" as="geometry" />
        </mxCell>
        <mxCell id="mCd9F4tSy7Tje80N99zC-56" value="" style="endArrow=open;endFill=1;endSize=12;html=1;rounded=0;dashed=1;entryX=0.96;entryY=0.488;entryDx=0;entryDy=0;entryPerimeter=0;" edge="1" parent="1">
          <mxGeometry width="160" relative="1" as="geometry">
            <mxPoint x="367.25" y="450" as="sourcePoint" />
            <mxPoint x="92.75" y="450" as="targetPoint" />
          </mxGeometry>
        </mxCell>
        <mxCell id="mCd9F4tSy7Tje80N99zC-57" value="&lt;font style=&quot;font-size: 8px&quot;&gt;&quot;Dog shakes&quot; + animal + &quot;out of tree&quot;&lt;/font&gt;" style="text;html=1;align=center;verticalAlign=middle;resizable=0;points=[];autosize=1;strokeColor=none;fillColor=none;" vertex="1" parent="1">
          <mxGeometry x="220" y="430" width="150" height="20" as="geometry" />
        </mxCell>
        <mxCell id="mCd9F4tSy7Tje80N99zC-61" value="" style="endArrow=open;endFill=1;endSize=12;html=1;rounded=0;entryX=0.02;entryY=0.133;entryDx=0;entryDy=0;entryPerimeter=0;" edge="1" parent="1" target="mCd9F4tSy7Tje80N99zC-68">
          <mxGeometry width="160" relative="1" as="geometry">
            <mxPoint x="95" y="500" as="sourcePoint" />
            <mxPoint x="255" y="500" as="targetPoint" />
          </mxGeometry>
        </mxCell>
        <mxCell id="mCd9F4tSy7Tje80N99zC-62" value="chase(cat)" style="text;html=1;align=center;verticalAlign=middle;resizable=0;points=[];autosize=1;strokeColor=none;fillColor=none;" vertex="1" parent="1">
          <mxGeometry x="255" y="480" width="70" height="20" as="geometry" />
        </mxCell>
        <mxCell id="mCd9F4tSy7Tje80N99zC-63" value="" style="endArrow=open;endFill=1;endSize=12;html=1;rounded=0;entryX=0.98;entryY=0.628;entryDx=0;entryDy=0;entryPerimeter=0;" edge="1" parent="1" target="mCd9F4tSy7Tje80N99zC-60">
          <mxGeometry width="160" relative="1" as="geometry">
            <mxPoint x="360" y="530" as="sourcePoint" />
            <mxPoint x="260" y="530" as="targetPoint" />
          </mxGeometry>
        </mxCell>
        <mxCell id="mCd9F4tSy7Tje80N99zC-64" value="&lt;font style=&quot;font-size: 9px&quot;&gt;&quot;Dog chasing: &quot; + otherAnimal&lt;/font&gt;" style="text;html=1;align=center;verticalAlign=middle;resizable=0;points=[];autosize=1;strokeColor=none;fillColor=none;" vertex="1" parent="1">
          <mxGeometry x="230" y="510" width="140" height="20" as="geometry" />
        </mxCell>
      </root>
    </mxGraphModel>
  </diagram>
</mxfile>
